<svg xmlns="http://www.w3.org/2000/svg" xmlns:xlink="http://www.w3.org/1999/xlink" width="760" height="760" xmlns:v="https://vecta.io/nano"><style><![CDATA[.B{color-interpolation-filters:sRGB}.C{stroke-width:.268}]]></style><defs><linearGradient id="A" gradientUnits="userSpaceOnUse"><stop offset="0" stop-color="#fff"/><stop offset=".5" stop-color="#7fd4ee"/><stop offset="1" stop-color="#00aade"/></linearGradient><filter id="B" class="B"><feGaussianBlur stdDeviation="6.415"/></filter><linearGradient x1="-616.609" y1="165.272" x2="-23.769" y2="811.592" id="C" gradientUnits="userSpaceOnUse"><stop offset="0" stop-color="#fff"/><stop offset=".499" stop-color="#d5e2ec"/></linearGradient><linearGradient x1="33.527" y1="441.981" x2="159.241" y2="581.413" id="D" xlink:href="#A"/><linearGradient x1="245.135" y1="429.628" x2="305.009" y2="534.166" id="E" xlink:href="#A"/><linearGradient x1="601.535" y1="434.948" x2="668.818" y2="543.358" id="F" xlink:href="#A"/><linearGradient x1="440.011" y1="462.051" x2="486.445" y2="541.423" id="G" xlink:href="#A"/><linearGradient x1="118.252" y1="254.246" x2="291.871" y2="254.246" id="H" gradientUnits="userSpaceOnUse"><stop offset="0"/><stop offset="1" stop-opacity="0"/></linearGradient><linearGradient x1="229.066" y1="-69.995" x2="462.175" y2="265.999" id="I" gradientUnits="userSpaceOnUse"><stop offset="0" stop-color="#b7b7b7"/><stop offset="1"/></linearGradient><filter id="J" class="B"><feGaussianBlur stdDeviation="4.667"/></filter><filter id="K" class="B"><feGaussianBlur stdDeviation="1.309"/></filter><path id="L" d="M58.346 417.636l56.432 69.384 56.451-66.664 40.5 40.307-61.781 65.917 65.459 68.016-42.746 42.503-64.149-72.738-60.243 74.29L7.19 597.328l67.518-65.786-61.679-69.086z"/><path id="M" d="M245.322 432.76l117.205-.744-.462 46.742-56.152 2.88-.171 36.17 53.921.572.173 44.41-53.062 1.123-.042 75.283-62.111-.884.699-205.553z"/><path id="N" d="M542.339 431.379l11.373 54.071c-36.273 12.228-88.713 15.006-91.249 68.095 6.672 52.011 70.354 34.371 98.684 36.769l.911 50.935c-126.766 16.69-161.696-45.131-163.833-67.519-12.5-100.831 88.585-130.205 144.115-142.351z"/><path id="O" d="M597.268 428.941l116.39-.422-1.345 46.27-56.499.054.799 34.591 48.828-.685-.567 45.709-48.375.807.475 32.727 57.105.096.113 50.462-118.3-3.347z"/></defs><g transform="translate(754.352 -70.105)"><path d="M-688.367 231.762l154.47-143.232 174.572 214.777L-170.75 88.081-25.666 221.316-234.4 435.408-20.543 663.491l-155.106 144.4-196.562-228.273-196.856 231.218-140.11-138.658 214.884-229.403-194.073-211.012z" filter="url(#B)"/><path d="M-692.093 232.018l154.47-143.232 174.573 214.777 188.573-215.226 145.085 133.234-208.734 214.092 213.857 228.083-155.106 144.4-196.562-228.273-196.856 231.218-140.11-138.658L-498.02 443.03-692.093 232.018z" fill="url(#C)"/></g><g transform="translate(20.6 32.752)"><g transform="translate(6 4.5)" opacity=".8" filter="url(#J)" stroke="#000" stroke-width="3"><use xlink:href="#L"/><use xlink:href="#M"/><use xlink:href="#N"/><use xlink:href="#O"/></g><g stroke="#00aade" stroke-width="3"><use xlink:href="#L" fill="url(#D)"/><use xlink:href="#M" fill="url(#E)"/><use xlink:href="#N" fill="url(#G)"/><use xlink:href="#O" fill="url(#F)"/></g></g><g transform="matrix(3.752493 0 0 3.752493 -424.92228 -686.03042)" fill="url(#H)" stroke="#000" class="C"><use width="760" height="760" xlink:href="#P" opacity=".8" filter="url(#K)" x="1.865" y="1.199"/><path d="M118.946 209.569c-.915.501 7.297 5.883 22.688 12.219s36.667 22.377 35 24.969c-4.999 7.041-7.941 15.482-5.906 29.906.367 2.539-7.543 6.95-6.969 10.781.48 2.915 8.838-2.896 9.75-1.75.558 2.057-4.466 12.475-2.437 13.219 1.484.441 14.523-12.401 15.281-12.187 21.514 6.504 49.521 1.612 50.063 1.406-.051-.113 20.12 9.492 21.875 8.344 4.427-4.794-8.387-11.551-6.25-14.25.937-1.413 15.621 5.303 16.344 3.469 1.052-3.175-6.817-9.837-8-11.812-1.029-1.821-1.233-4.754 1.406-6.594s29.632-12.166 28.5-20.156c-1.957-14.518-34.26-15.465-34.781-16.687-.245-.574 1.448-20.76-7.969-17.031-5.798 2.158-1.094 15.024-.719 16.688.346 1.531-2.574 1.359-3.125.688-1.23-1.502-5.273-14.925-10.062-12.531-6.718 3.704-.41 15.281-1.75 15.656-2.489 1.391-2.349 4.794-4.344 7.563-3.29 4.715-27.917-2.206-35.875-2.687-5.826-.344-11.38 4.421-11.906 3.813-7.094-7.104-21.765-19.485-37.844-23.594-9.017-2.447-22.431-9.528-22.969-9.437zm164.219 13c-.537.232-2.704 11.397-1.656 11.906.929.695 2.536-11.257 1.688-11.875-.014-.016-.014-.039-.031-.031zm7.969 1.531c-1.218-.022-7.715 10.361-6.219 11.469.929.695 6.711-11.044 6.313-11.437-.028-.023-.054-.03-.094-.031zm-31.5 12.656c1.539 0 2.781 1.404 2.781 3.156s-1.242 3.188-2.781 3.188-2.781-1.435-2.781-3.187 1.242-3.156 2.781-3.156zm-6.25 1.906c1.184 5.111 3.017 6.726 8.563 6.563-7.059 6.473-11.334-4.603-8.562-6.562zm14.938 13.375c.439-.036.776.033.969.219 2.781 1.008-11.933 6.311-12.031 5.563-.148-.516 7.987-5.532 11.063-5.781zm1.813 3.375c.152-.012.294.036.406.094 2.625 2.608-8.31 8.391-8.187 8.188-.881-.533 5.498-8.104 7.781-8.281z" id="P" fill="#000" fill-rule="evenodd" stroke="#000" class="C"/><path d="M21.406 100.375c-3.434 1.88 27.405 22.068 85.156 45.844s137.599 83.992 131.344 93.719c-18.759 26.421-29.824 58.093-22.187 112.219 1.377 9.528-28.279 26.062-26.125 40.438 1.622 9.848 27.167-6.836 34.75-7.125-12.75-97.068 156.376-151.98 300.031-174.344.422-.619.942-1.146 1.531-1.562l.313 1.281 13.844-2.062c1.736-3.797 5.243-6.375 9.281-6.375 3.183 0 6.025 1.589 7.938 4.125 23.875-2.995 46.506-5.065 66.844-6.219-37.955-16.115-88.987-18.631-90.25-21.594-.919-2.154 5.431-77.899-29.906-63.906-21.757 8.098-4.095 56.353-2.687 62.594 1.298 5.745-9.682 5.115-11.75 2.594-4.616-5.636-19.776-56.015-37.75-47.031-25.209 13.899-1.534 57.343-6.562 58.75-9.34 5.22-8.826 17.988-16.312 28.375-12.346 17.693-104.763-8.254-134.625-10.062-21.862-1.291-42.682 16.563-44.656 14.281-26.62-26.658-81.664-73.112-142-88.531-33.836-9.182-84.2-35.744-86.219-35.406z" transform="matrix(.26649 0 0 .26649 113.23734 182.81993)" fill="url(#I)"/></g></svg>